<svg viewBox="0 0 400 300" xmlns="http://www.w3.org/2000/svg"><path d="m137.83 132.85 8.05-8.23" fill="#fff"/><path d="m137.83 133.31a.45.45 0 0 1 -.32-.13.46.46 0 0 1 0-.65l8-8.23a.46.46 0 0 1 .66.64l-8.05 8.23a.47.47 0 0 1 -.29.14z" fill="#231f20"/><path d="m145.88 132.85-8.05-8.23" fill="#fff"/><path d="m145.88 133.31a.47.47 0 0 1 -.33-.14l-8-8.23a.45.45 0 0 1 0-.64.46.46 0 0 1 .65 0l8.05 8.23a.47.47 0 0 1 0 .65.45.45 0 0 1 -.37.13z" fill="#231f20"/><path d="m145.88 132.85 8.05-8.23" fill="#fff"/><path d="m145.88 133.31a.44.44 0 0 1 -.32-.13.47.47 0 0 1 0-.65l8-8.23a.45.45 0 0 1 .64 0 .44.44 0 0 1 0 .64l-8 8.23a.47.47 0 0 1 -.32.14z" fill="#231f20"/><path d="m153.93 132.85-8.05-8.23" fill="#fff"/><path d="m153.93 133.31a.47.47 0 0 1 -.33-.14l-8-8.23a.46.46 0 0 1 .66-.64l8 8.23a.45.45 0 0 1 0 .65.42.42 0 0 1 -.33.13z" fill="#231f20"/><path d="m153.93 132.85 8.04-8.23" fill="#fff"/><path d="m153.93 133.31a.42.42 0 0 1 -.32-.13.46.46 0 0 1 0-.65l8.05-8.23a.46.46 0 0 1 .65.64l-8.05 8.23a.47.47 0 0 1 -.33.14z" fill="#231f20"/><path d="m161.97 132.85-8.04-8.23" fill="#fff"/><path d="m162 133.31a.43.43 0 0 1 -.32-.14l-8.05-8.23a.46.46 0 0 1 .65-.64l8.05 8.23a.46.46 0 0 1 0 .65.44.44 0 0 1 -.33.13z" fill="#231f20"/><path d="m161.97 132.85 8.05-8.23" fill="#fff"/><path d="m162 133.31a.45.45 0 0 1 -.32-.13.46.46 0 0 1 0-.65l8-8.23a.46.46 0 0 1 .66.64l-8 8.23a.47.47 0 0 1 -.34.14z" fill="#231f20"/><path d="m170.02 132.85-8.05-8.23" fill="#fff"/><path d="m170 133.31a.47.47 0 0 1 -.33-.14l-8-8.23a.45.45 0 0 1 0-.64.46.46 0 0 1 .65 0l8 8.23a.47.47 0 0 1 0 .65.45.45 0 0 1 -.32.13z" fill="#231f20"/><path d="m170.02 132.85 8.05-8.23" fill="#fff"/><path d="m170 133.31a.44.44 0 0 1 -.32-.13.47.47 0 0 1 0-.65l8.05-8.23a.46.46 0 0 1 .65 0 .45.45 0 0 1 0 .64l-8 8.23a.47.47 0 0 1 -.38.14z" fill="#231f20"/><path d="m178.07 132.85-8.05-8.23" fill="#fff"/><path d="m178.07 133.31a.47.47 0 0 1 -.33-.14l-8.05-8.23a.46.46 0 0 1 .66-.64l8 8.23a.46.46 0 0 1 0 .65.45.45 0 0 1 -.28.13z" fill="#231f20"/><path d="m178.07 132.85 8.04-8.23" fill="#fff"/><path d="m178.07 133.31a.44.44 0 0 1 -.32-.13.46.46 0 0 1 0-.65l8-8.23a.46.46 0 0 1 .65.64l-8.05 8.23a.47.47 0 0 1 -.28.14z" fill="#231f20"/><path d="m186.11 132.85-8.04-8.23" fill="#fff"/><path d="m186.11 133.31a.45.45 0 0 1 -.32-.14l-8-8.23a.46.46 0 0 1 .65-.64l8.05 8.23a.46.46 0 0 1 0 .65.44.44 0 0 1 -.38.13z" fill="#231f20"/><path d="m186.11 132.85 8.05-8.23" fill="#fff"/><path d="m186.11 133.31a.45.45 0 0 1 -.32-.13.46.46 0 0 1 0-.65l8-8.23a.46.46 0 0 1 .66.64l-8.05 8.23a.47.47 0 0 1 -.29.14z" fill="#231f20"/><path d="m194.16 132.85-8.05-8.23" fill="#fff"/><path d="m194.16 133.31a.47.47 0 0 1 -.33-.14l-8-8.23a.45.45 0 0 1 0-.64.46.46 0 0 1 .65 0l8.05 8.23a.47.47 0 0 1 0 .65.45.45 0 0 1 -.37.13z" fill="#231f20"/><path d="m205.67 132.85 8.05-8.23" fill="#fff"/><path d="m205.67 133.31a.45.45 0 0 1 -.32-.13.46.46 0 0 1 0-.65l8-8.23a.46.46 0 0 1 .66.64l-8.01 8.23a.47.47 0 0 1 -.33.14z" fill="#231f20"/><path d="m213.72 132.85-8.05-8.23" fill="#fff"/><path d="m213.72 133.31a.47.47 0 0 1 -.33-.14l-8-8.23a.45.45 0 0 1 0-.64.46.46 0 0 1 .65 0l8.05 8.23a.47.47 0 0 1 0 .65.44.44 0 0 1 -.37.13z" fill="#231f20"/><path d="m213.72 132.85 8.05-8.23" fill="#fff"/><path d="m213.72 133.31a.45.45 0 0 1 -.32-.13.47.47 0 0 1 0-.65l8.05-8.23a.46.46 0 0 1 .65 0 .45.45 0 0 1 0 .64l-8 8.23a.47.47 0 0 1 -.38.14z" fill="#231f20"/><path d="m221.77 132.85-8.05-8.23" fill="#fff"/><path d="m221.77 133.31a.47.47 0 0 1 -.33-.14l-8.05-8.23a.46.46 0 0 1 .66-.64l8 8.23a.46.46 0 0 1 0 .65.45.45 0 0 1 -.28.13z" fill="#231f20"/><path d="m221.77 132.85 8.04-8.23" fill="#fff"/><path d="m221.77 133.31a.44.44 0 0 1 -.32-.13.47.47 0 0 1 0-.65l8.05-8.23a.46.46 0 0 1 .65.64l-8 8.23a.43.43 0 0 1 -.38.14z" fill="#231f20"/><path d="m229.81 132.85-8.04-8.23" fill="#fff"/><path d="m229.81 133.31a.47.47 0 0 1 -.32-.14l-8.05-8.23a.46.46 0 0 1 0-.64.45.45 0 0 1 .64 0l8 8.23a.46.46 0 0 1 0 .65.42.42 0 0 1 -.27.13z" fill="#231f20"/><path d="m229.81 132.85 8.05-8.23" fill="#fff"/><path d="m229.81 133.31a.42.42 0 0 1 -.31-.13.45.45 0 0 1 0-.65l8-8.23a.45.45 0 0 1 .64 0 .46.46 0 0 1 0 .64l-8.05 8.23a.47.47 0 0 1 -.28.14z" fill="#231f20"/><path d="m237.86 132.85-8.05-8.23" fill="#fff"/><path d="m237.86 133.31a.43.43 0 0 1 -.32-.14l-8-8.23a.44.44 0 0 1 0-.64.45.45 0 0 1 .64 0l8.05 8.23a.47.47 0 0 1 0 .65.44.44 0 0 1 -.37.13z" fill="#231f20"/><path d="m237.86 132.85 8.05-8.23" fill="#fff"/><path d="m237.86 133.31a.45.45 0 0 1 -.32-.13.46.46 0 0 1 0-.65l8-8.23a.46.46 0 0 1 .66.64l-8.05 8.23a.47.47 0 0 1 -.29.14z" fill="#231f20"/><path d="m245.91 132.85-8.05-8.23" fill="#fff"/><path d="m245.91 133.31a.47.47 0 0 1 -.33-.14l-8-8.23a.45.45 0 0 1 0-.64.46.46 0 0 1 .65 0l8.05 8.23a.47.47 0 0 1 0 .65.45.45 0 0 1 -.37.13z" fill="#231f20"/><path d="m245.91 132.85 8.05-8.23" fill="#fff"/><path d="m245.91 133.31a.44.44 0 0 1 -.32-.13.47.47 0 0 1 0-.65l8-8.23a.45.45 0 0 1 .64 0 .44.44 0 0 1 0 .64l-8 8.23a.47.47 0 0 1 -.32.14z" fill="#231f20"/><path d="m253.96 132.85-8.05-8.23" fill="#fff"/><path d="m254 133.31a.47.47 0 0 1 -.33-.14l-8-8.23a.46.46 0 0 1 .66-.64l8 8.23a.45.45 0 0 1 0 .65.42.42 0 0 1 -.33.13z" fill="#231f20"/><path d="m253.96 132.85 8.04-8.23" fill="#fff"/><path d="m254 133.31a.44.44 0 0 1 -.32-.13.46.46 0 0 1 0-.65l8.05-8.23a.45.45 0 0 1 .64 0 .46.46 0 0 1 0 .64l-8 8.23a.47.47 0 0 1 -.37.14z" fill="#231f20"/><path d="m262 132.85-8.04-8.23" fill="#fff"/><path d="m262 133.31a.43.43 0 0 1 -.32-.14l-8.05-8.23a.46.46 0 0 1 .65-.64l8 8.23a.47.47 0 0 1 0 .65.44.44 0 0 1 -.28.13z" fill="#231f20"/><path d="m271.27 124.76h-142.54a.45.45 0 0 1 -.46-.45.46.46 0 0 1 .46-.46h142.54a.46.46 0 0 1 .46.46.45.45 0 0 1 -.46.45z" fill="#231f20"/><path d="m134.53 203.02h130.93v4.55h-130.93z" fill="#fff"/><path d="m265.47 208h-130.94a.45.45 0 0 1 -.45-.45v-4.55a.45.45 0 0 1 .45-.45h130.94a.45.45 0 0 1 .45.45v4.56a.45.45 0 0 1 -.45.44zm-130.47-.88h130v-3.64h-130z" fill="#231f20"/><path d="m265.47 207.58v27h-15.68s-10.71-24.2-49.79-24.2-49.79 24.2-49.79 24.2h-15.68v-27z" fill="#fff"/><path d="m265.47 235h-15.68a.48.48 0 0 1 -.42-.27c-.1-.24-11.07-23.94-49.37-23.94s-49.27 23.7-49.37 23.94a.48.48 0 0 1 -.42.27h-15.68a.46.46 0 0 1 -.46-.46v-27a.46.46 0 0 1 .46-.46h130.94a.46.46 0 0 1 .46.46v27a.46.46 0 0 1 -.46.46zm-15.39-.91h14.92v-26.09h-130v26.1h14.93c1.36-2.69 13.4-24.21 50.08-24.21s48.71 21.55 50.07 24.24z" fill="#231f20"/><path d="m129.52 132.85h140.96v4.17h-140.96z" fill="#231f20"/><path d="m270.48 137.52h-141a.5.5 0 0 1 -.5-.5v-4.17a.5.5 0 0 1 .5-.5h141a.5.5 0 0 1 .5.5v4.15a.5.5 0 0 1 -.5.52zm-140.46-1h139.98v-3.17h-140z" fill="#231f20"/><path d="m194.33 122.63 5.67-3.91 5.67 3.91v10.22h-11.34z" fill="#BE75BE"/><g fill="#231f20"><path d="m205.67 133.31h-11.34a.46.46 0 0 1 -.46-.46v-10.22a.46.46 0 0 1 .2-.38l5.67-3.91a.49.49 0 0 1 .52 0l5.67 3.91a.46.46 0 0 1 .2.38v10.22a.46.46 0 0 1 -.46.46zm-10.89-.91h10.44v-9.53l-5.22-3.6-5.22 3.6z"/><path d="m194.33 130.63a.45.45 0 0 1 -.46-.45v-10.28a.46.46 0 1 1 .91 0v10.28a.45.45 0 0 1 -.45.45z"/><path d="m205.67 130.63a.45.45 0 0 1 -.45-.45v-10.28a.46.46 0 1 1 .91 0v10.28a.45.45 0 0 1 -.46.45z"/><path d="m200 119.18a.47.47 0 0 1 -.46-.46v-2.84a.46.46 0 0 1 .92 0v2.84a.47.47 0 0 1 -.46.46z"/><path d="m45.55 203v-26.71c32-5.33 64-44.36 64-44.36l-1.76 7.69s-32.59 36.83-62.26 40.26"/><path d="m45.55 203.52a.5.5 0 0 1 -.5-.5v-23.14-3.58a.51.51 0 0 1 .42-.5c31.45-5.23 63.39-43.79 63.71-44.17a.51.51 0 0 1 .61-.14.52.52 0 0 1 .26.56l-1.75 7.69a.43.43 0 0 1 -.12.22c-.32.37-32.72 36.65-62.13 40.37v22.67a.5.5 0 0 1 -.5.52zm.5-26.81v2.6c28.27-3.66 59.45-37.87 61.3-39.93l1.28-5.58c-6.37 7.3-34.55 37.99-62.58 42.91z"/><path d="m55.23 203.48a.45.45 0 0 1 -.45-.46v-25.34a.46.46 0 0 1 .91 0v25.32a.45.45 0 0 1 -.46.48z"/><path d="m65.58 203.48a.45.45 0 0 1 -.46-.46v-29.71a.46.46 0 0 1 .91 0v29.69a.45.45 0 0 1 -.45.48z"/><path d="m76.39 203.48a.46.46 0 0 1 -.46-.46v-36.02a.46.46 0 0 1 .92 0v36a.46.46 0 0 1 -.46.48z"/><path d="m87.2 203.48a.45.45 0 0 1 -.45-.46v-44.02a.46.46 0 0 1 .91 0v44a.45.45 0 0 1 -.46.48z"/><path d="m121.69 68.71a.46.46 0 0 1 -.46-.45v-9.08a.46.46 0 0 1 .92 0v9.08a.46.46 0 0 1 -.46.45z"/><path d="m120.41 70.66h2.56l11.1 45.64h-24.76z"/><path d="m134.07 116.79h-24.75a.51.51 0 0 1 -.4-.19.49.49 0 0 1 -.09-.42l11.09-45.63a.51.51 0 0 1 .49-.39h2.59a.49.49 0 0 1 .48.39l11.09 45.63a.49.49 0 0 1 -.09.42.51.51 0 0 1 -.41.19zm-24.12-1h23.48l-10.85-44.63h-1.78z"/><path d="m120.42 67.24h2.55v3.42h-2.55z"/><path d="m123 71.16h-2.54a.5.5 0 0 1 -.5-.5v-3.42a.5.5 0 0 1 .5-.5h2.54a.5.5 0 0 1 .5.5v3.42a.5.5 0 0 1 -.5.5zm-2-1h1.54v-2.42h-1.54z"/></g><path d="m127.1 114.8v-10.81l-5.41-9.1-5.41 9.1v10.81h-5.2v86.51h21.22v-86.51z" fill="#BE75BE"/><path d="m132.3 201.77h-21.21a.46.46 0 0 1 -.46-.46v-86.51a.45.45 0 0 1 .46-.45h4.74v-10.35a.46.46 0 0 1 .06-.23l5.41-9.1a.47.47 0 0 1 .78 0l5.41 9.1a.46.46 0 0 1 .06.23v10.36h4.75a.45.45 0 0 1 .45.45v86.51a.46.46 0 0 1 -.45.45zm-20.76-.92h20.3v-85.59h-4.74a.47.47 0 0 1 -.46-.46v-10.69l-5-8.33-5 8.33v10.69a.46.46 0 0 1 -.46.46h-4.74z" fill="#231f20"/><path d="m132.3 123.18h-21.21a.46.46 0 1 1 0-.91h21.21a.46.46 0 0 1 0 .91z" fill="#231f20"/><path d="m117.94 139.67h-3.35v-10.84c0-.93 1.68-2.43 1.68-2.43s1.67 1.5 1.67 2.43z" fill="#231f20"/><path d="m123.37 139.67h-3.37v-10.84c0-.93 1.68-2.43 1.68-2.43s1.68 1.5 1.68 2.43z" fill="#231f20"/><path d="m128.79 139.67h-3.35v-10.84c0-.93 1.67-2.43 1.67-2.43s1.68 1.5 1.68 2.43z" fill="#231f20"/><path d="m117.94 160h-3.35v-10.89c0-.92 1.68-2.43 1.68-2.43s1.67 1.51 1.67 2.43z" fill="#231f20"/><path d="m123.37 160h-3.37v-10.89c0-.92 1.68-2.43 1.68-2.43s1.68 1.51 1.68 2.43z" fill="#231f20"/><path d="m128.79 160h-3.35v-10.89c0-.92 1.67-2.43 1.67-2.43s1.68 1.51 1.68 2.43z" fill="#231f20"/><path d="m117.94 180.25h-3.35v-10.85c0-.93 1.68-2.43 1.68-2.43s1.67 1.5 1.67 2.43z" fill="#231f20"/><path d="m123.37 180.25h-3.37v-10.85c0-.93 1.68-2.43 1.68-2.43s1.68 1.5 1.68 2.43z" fill="#231f20"/><path d="m128.79 180.25h-3.35v-10.85c0-.93 1.67-2.43 1.67-2.43s1.68 1.5 1.68 2.43z" fill="#231f20"/><path d="m131.54 186.24h-19.7a.46.46 0 0 1 -.46-.45.47.47 0 0 1 .46-.46h19.7a.47.47 0 0 1 .46.46.46.46 0 0 1 -.46.45z" fill="#231f20"/><path d="m107.56 81.19 5.06 19.27h-10.12z" fill="#231f20"/><path d="m112.62 101h-10.12a.52.52 0 0 1 -.4-.2.5.5 0 0 1 -.08-.43l5-19.27a.52.52 0 0 1 1 0l5.06 19.27a.48.48 0 0 1 -.09.43.5.5 0 0 1 -.37.2zm-9.47-1h8.85l-4.41-16.81z" fill="#231f20"/><path d="m104.32 100.46.21 32.12 1.93 5.14v63.59h6.21v-64.24l-1.51-3.37v-33.24z" fill="#BE75BE"/><path d="m112.67 201.77h-6.21a.47.47 0 0 1 -.46-.46v-63.51l-1.89-5.06a.45.45 0 0 1 0-.16l-.22-32.12a.47.47 0 0 1 .14-.33.46.46 0 0 1 .32-.13h6.84a.46.46 0 0 1 .46.46v33.14l1.47 3.29a.53.53 0 0 1 0 .18v64.24a.47.47 0 0 1 -.45.46zm-5.75-.92h5.29v-63.68l-1.47-3.28a.65.65 0 0 1 0-.19v-32.79h-5.92l.21 31.58 1.9 5.06a.5.5 0 0 1 0 .16z" fill="#231f20"/><path d="m111.16 121.79h-6.7a.46.46 0 1 1 0-.91h6.7a.46.46 0 1 1 0 .91z" fill="#231f20"/><path d="m112.67 138.17h-6.21a.46.46 0 1 1 0-.91h6.21a.46.46 0 1 1 0 .91z" fill="#231f20"/><path d="m135.82 81.19-5.06 19.27h10.12z" fill="#231f20"/><path d="m140.88 101h-10.12a.5.5 0 0 1 -.39-.2.48.48 0 0 1 -.09-.43l5.06-19.27a.52.52 0 0 1 1 0l5.06 19.27a.51.51 0 0 1 -.09.43.52.52 0 0 1 -.43.2zm-9.47-1h8.82l-4.41-16.81z" fill="#231f20"/><path d="m139.06 100.46-.21 32.12-1.93 5.14v63.59h-6.21v-64.24l1.51-3.37v-33.24z" fill="#BE75BE"/><path d="m136.92 201.77h-6.21a.47.47 0 0 1 -.46-.46v-64.24a.53.53 0 0 1 0-.18l1.47-3.29v-33.14a.46.46 0 0 1 .46-.46h6.84a.44.44 0 0 1 .46.46l-.22 32.12a.88.88 0 0 1 0 .16l-1.9 5.06v63.51a.47.47 0 0 1 -.44.46zm-5.75-.92h5.29v-63.14a.5.5 0 0 1 0-.16l1.9-5.06.21-31.58h-5.92v32.79a.43.43 0 0 1 0 .19l-1.47 3.28z" fill="#231f20"/><path d="m138.92 121.34h-6.7" fill="#fff"/><path d="m138.92 121.79h-6.7a.46.46 0 1 1 0-.91h6.7a.46.46 0 1 1 0 .91z" fill="#231f20"/><path d="m136.92 137.72h-6.21" fill="#fff"/><path d="m136.92 138.17h-6.21a.46.46 0 1 1 0-.91h6.21a.46.46 0 1 1 0 .91z" fill="#231f20"/><path d="m107.56 82.44a.46.46 0 0 1 -.46-.46v-4.49a.46.46 0 0 1 .92 0v4.51a.46.46 0 0 1 -.46.44z" fill="#231f20"/><path d="m135.82 82.44a.45.45 0 0 1 -.45-.46v-4.49a.46.46 0 1 1 .91 0v4.51a.45.45 0 0 1 -.46.44z" fill="#231f20"/><path d="m99.51 201.31h44.32v33.28h-44.32z" fill="#BE75BE"/><path d="m143.84 235h-44.33a.45.45 0 0 1 -.45-.45v-33.24a.46.46 0 0 1 .45-.46h44.33a.47.47 0 0 1 .46.46v33.28a.46.46 0 0 1 -.46.41zm-43.84-.87h43.41v-32.36h-43.41z" fill="#231f20"/><path d="m123.37 116.29h-3.37v-10.84c0-.93 1.68-2.43 1.68-2.43s1.68 1.5 1.68 2.43z" fill="#231f20"/><path d="m123.37 116.79h-3.37a.5.5 0 0 1 -.5-.5v-10.84c0-1.1 1.54-2.53 1.85-2.8a.49.49 0 0 1 .66 0c.31.27 1.85 1.7 1.85 2.8v10.84a.5.5 0 0 1 -.49.5zm-2.86-1h2.36v-10.34a3.92 3.92 0 0 0 -1.18-1.74 3.92 3.92 0 0 0 -1.18 1.74z" fill="#231f20"/><path d="m45.55 203.02h53.96v4.55h-53.96z" fill="#fff"/><path d="m99.51 208h-54a.45.45 0 0 1 -.45-.45v-4.55a.45.45 0 0 1 .45-.45h54a.45.45 0 0 1 .46.45v4.56a.45.45 0 0 1 -.46.44zm-53.51-.88h53.06v-3.64h-53.06z" fill="#231f20"/><path d="m45.55 207.58h53.96v27.01h-53.96z" fill="#fff"/><path d="m99.51 235h-54a.45.45 0 0 1 -.45-.45v-27a.45.45 0 0 1 .45-.46h54a.45.45 0 0 1 .46.46v27a.45.45 0 0 1 -.46.45zm-53.51-.87h53.06v-26.13h-53.06z" fill="#231f20"/><path d="m98 203.48a.45.45 0 0 1 -.46-.46v-53.49a.46.46 0 1 1 .91 0v53.47a.45.45 0 0 1 -.45.48z" fill="#231f20"/><path d="m354.45 203v-26.71c-32-5.33-64-44.36-64-44.36l1.76 7.69s32.59 36.83 62.26 40.26" fill="#231f20"/><path d="m354.45 203.52a.5.5 0 0 1 -.5-.5v-22.7c-29.41-3.72-61.81-40-62.13-40.37a.43.43 0 0 1 -.12-.22l-1.7-7.73a.52.52 0 0 1 .26-.56.51.51 0 0 1 .61.14c.32.38 32.26 38.94 63.71 44.17a.51.51 0 0 1 .42.5v3.58 23.17a.5.5 0 0 1 -.55.52zm-61.8-64.14c1.85 2.06 33 36.27 61.3 39.93v-2.6c-28-4.92-56.21-35.61-62.58-42.91z" fill="#231f20"/><path d="m344.77 203.48a.45.45 0 0 1 -.46-.46v-25.34a.46.46 0 0 1 .91 0v25.32a.45.45 0 0 1 -.45.48z" fill="#231f20"/><path d="m334.42 203.48a.45.45 0 0 1 -.42-.48v-29.69a.46.46 0 0 1 .91 0v29.69a.45.45 0 0 1 -.49.48z" fill="#231f20"/><path d="m323.61 203.48a.46.46 0 0 1 -.46-.46v-36.02a.46.46 0 1 1 .92 0v36a.46.46 0 0 1 -.46.48z" fill="#231f20"/><path d="m312.8 203.48a.45.45 0 0 1 -.46-.46v-44.02a.46.46 0 0 1 .91 0v44a.45.45 0 0 1 -.45.48z" fill="#231f20"/><path d="m278.31 68.26v-9.08" fill="#fff"/><path d="m278.31 68.71a.46.46 0 0 1 -.46-.45v-9.08a.46.46 0 0 1 .92 0v9.08a.46.46 0 0 1 -.46.45z" fill="#231f20"/><path d="m279.59 70.66h-2.57l-11.09 45.64h24.76z" fill="#231f20"/><path d="m290.68 116.79h-24.75a.51.51 0 0 1 -.39-.19.49.49 0 0 1 -.09-.42l11.09-45.63a.49.49 0 0 1 .48-.39h2.57a.51.51 0 0 1 .49.39l11.09 45.63a.49.49 0 0 1 -.09.42.51.51 0 0 1 -.4.19zm-24.11-1h23.48l-10.85-44.63h-1.78z" fill="#231f20"/><path d="m277.04 67.24h2.55v3.42h-2.55z" fill="#231f20" transform="matrix(-1 0 0 -1 556.62 137.91)"/><path d="m279.58 71.16h-2.58a.5.5 0 0 1 -.5-.5v-3.42a.5.5 0 0 1 .5-.5h2.54a.5.5 0 0 1 .5.5v3.42a.5.5 0 0 1 -.46.5zm-2-1h1.54v-2.42h-1.54z" fill="#231f20"/><path d="m272.9 114.8v-10.81l5.41-9.1 5.41 9.1v10.81h5.2v86.51h-21.22v-86.51z" fill="#BE75BE"/><path d="m288.91 201.77h-21.21a.46.46 0 0 1 -.45-.46v-86.51a.45.45 0 0 1 .45-.45h4.75v-10.35a.46.46 0 0 1 .06-.23l5.41-9.1a.47.47 0 0 1 .78 0l5.41 9.1a.46.46 0 0 1 .06.23v10.36h4.74a.45.45 0 0 1 .46.45v86.51a.46.46 0 0 1 -.46.45zm-20.75-.92h20.3v-85.59h-4.74a.46.46 0 0 1 -.46-.46v-10.69l-4.95-8.33-4.95 8.33v10.69a.47.47 0 0 1 -.46.46h-4.74z" fill="#231f20"/><path d="m288.91 122.73h-21.21" fill="#fff"/><path d="m288.91 123.18h-21.21a.46.46 0 0 1 0-.91h21.21a.46.46 0 1 1 0 .91z" fill="#231f20"/><path d="m282.06 139.67h3.35v-10.84c0-.93-1.68-2.43-1.68-2.43s-1.67 1.5-1.67 2.43z" fill="#231f20"/><path d="m276.63 139.67h3.37v-10.84c0-.93-1.68-2.43-1.68-2.43s-1.68 1.5-1.68 2.43z" fill="#231f20"/><path d="m271.21 139.67h3.35v-10.84c0-.93-1.67-2.43-1.67-2.43s-1.68 1.5-1.68 2.43z" fill="#231f20"/><path d="m282.06 160h3.35v-10.89c0-.92-1.68-2.43-1.68-2.43s-1.67 1.51-1.67 2.43z" fill="#231f20"/><path d="m276.63 160h3.37v-10.89c0-.92-1.68-2.43-1.68-2.43s-1.68 1.51-1.68 2.43z" fill="#231f20"/><path d="m271.21 160h3.35v-10.89c0-.92-1.67-2.43-1.67-2.43s-1.68 1.51-1.68 2.43z" fill="#231f20"/><path d="m282.06 180.25h3.35v-10.85c0-.93-1.68-2.43-1.68-2.43s-1.67 1.5-1.67 2.43z" fill="#231f20"/><path d="m276.63 180.25h3.37v-10.85c0-.93-1.68-2.43-1.68-2.43s-1.68 1.5-1.68 2.43z" fill="#231f20"/><path d="m271.21 180.25h3.35v-10.85c0-.93-1.67-2.43-1.67-2.43s-1.68 1.5-1.68 2.43z" fill="#231f20"/><path d="m287.33 143.58h-18.04" fill="#fff"/><path d="m287.33 144h-18a.47.47 0 0 1 -.46-.46.46.46 0 0 1 .46-.45h18a.46.46 0 0 1 .46.45.47.47 0 0 1 -.46.46z" fill="#231f20"/><path d="m287.33 164.21h-18.04" fill="#fff"/><path d="m287.33 164.67h-18a.46.46 0 1 1 0-.91h18a.46.46 0 1 1 0 .91z" fill="#231f20"/><path d="m288.16 185.79h-19.7" fill="#fff"/><path d="m288.16 186.24h-19.7a.46.46 0 0 1 -.46-.45.47.47 0 0 1 .46-.46h19.7a.47.47 0 0 1 .46.46.46.46 0 0 1 -.46.45z" fill="#231f20"/><path d="m292.44 81.19-5.06 19.27h10.12z" fill="#231f20"/><path d="m297.5 101h-10.12a.5.5 0 0 1 -.39-.2.48.48 0 0 1 -.09-.43l5.1-19.31a.52.52 0 0 1 1 0l5 19.27a.5.5 0 0 1 -.08.43.52.52 0 0 1 -.42.24zm-9.5-1h8.82l-4.41-16.81z" fill="#231f20"/><path d="m295.68 100.46-.21 32.12-1.93 5.14v63.59h-6.21v-64.24l1.51-3.37v-33.24z" fill="#BE75BE"/><path d="m293.54 201.77h-6.21a.47.47 0 0 1 -.46-.46v-64.24a.53.53 0 0 1 0-.18l1.47-3.29v-33.14a.46.46 0 0 1 .46-.46h6.84a.46.46 0 0 1 .32.13.47.47 0 0 1 .14.33l-.22 32.12a.45.45 0 0 1 0 .16l-1.88 5.06v63.51a.47.47 0 0 1 -.46.46zm-5.75-.92h5.29v-63.14a.5.5 0 0 1 0-.16l1.9-5.06.21-31.58h-5.89v32.79a.65.65 0 0 1 0 .19l-1.47 3.28z" fill="#231f20"/><path d="m295.54 121.34h-6.7" fill="#fff"/><path d="m295.54 121.79h-6.7a.46.46 0 1 1 0-.91h6.7a.46.46 0 1 1 0 .91z" fill="#231f20"/><path d="m293.54 137.72h-6.21" fill="#fff"/><path d="m293.54 138.17h-6.21a.46.46 0 1 1 0-.91h6.21a.46.46 0 1 1 0 .91z" fill="#231f20"/><path d="m264.18 81.19 5.06 19.27h-10.12z" fill="#231f20"/><path d="m269.24 101h-10.12a.52.52 0 0 1 -.4-.2.51.51 0 0 1 -.09-.43l5.06-19.27a.52.52 0 0 1 1 0l5.06 19.27a.48.48 0 0 1 -.09.43.5.5 0 0 1 -.42.2zm-9.47-1h8.82l-4.41-16.81z" fill="#231f20"/><path d="m260.94 100.46.21 32.12 1.93 5.14v63.59h6.21v-64.24l-1.51-3.37v-33.24z" fill="#BE75BE"/><path d="m269.29 201.77h-6.21a.47.47 0 0 1 -.46-.46v-63.51l-1.9-5.06a.88.88 0 0 1 0-.16l-.22-32.12a.44.44 0 0 1 .46-.46h6.84a.46.46 0 0 1 .46.46v33.14l1.47 3.29a.53.53 0 0 1 0 .18v64.24a.47.47 0 0 1 -.44.46zm-5.75-.92h5.29v-63.68l-1.47-3.28a.43.43 0 0 1 0-.19v-32.79h-5.96l.21 31.58 1.9 5.06a.5.5 0 0 1 0 .16z" fill="#231f20"/><path d="m261.08 121.34h6.7" fill="#fff"/><path d="m267.78 121.79h-6.7a.46.46 0 1 1 0-.91h6.7a.46.46 0 1 1 0 .91z" fill="#231f20"/><path d="m269.29 138.17h-6.21a.46.46 0 1 1 0-.91h6.21a.46.46 0 1 1 0 .91z" fill="#231f20"/><path d="m292.44 81.98v-4.49" fill="#fff"/><path d="m292.44 82.44a.46.46 0 0 1 -.44-.44v-4.51a.46.46 0 0 1 .92 0v4.51a.46.46 0 0 1 -.48.44z" fill="#231f20"/><path d="m264.18 81.98v-4.49" fill="#fff"/><path d="m264.18 82.44a.45.45 0 0 1 -.46-.46v-4.49a.46.46 0 1 1 .91 0v4.51a.45.45 0 0 1 -.45.44z" fill="#231f20"/><path d="m256.16 201.31h44.32v33.28h-44.32z" fill="#BE75BE"/><path d="m300.49 235h-44.33a.46.46 0 0 1 -.46-.45v-33.24a.47.47 0 0 1 .46-.46h44.33a.46.46 0 0 1 .45.46v33.28a.45.45 0 0 1 -.45.41zm-43.87-.91h43.38v-32.32h-43.38z" fill="#231f20"/><path d="m276.63 116.29h3.37v-10.84c0-.93-1.68-2.43-1.68-2.43s-1.68 1.5-1.68 2.43z" fill="#231f20"/><path d="m300.49 203.02h53.96v4.55h-53.96z" fill="#fff" transform="matrix(-1 0 0 -1 654.93 410.6)"/><path d="m354.45 208h-54a.45.45 0 0 1 -.46-.45v-4.55a.45.45 0 0 1 .46-.45h54a.45.45 0 0 1 .45.45v4.56a.45.45 0 0 1 -.45.44zm-53.51-.91h53.06v-3.64h-53.06z" fill="#231f20"/><path d="m300.49 207.58h53.96v27.01h-53.96z" fill="#fff" transform="matrix(-1 0 0 -1 654.93 442.16)"/><path d="m354.45 235h-54a.45.45 0 0 1 -.46-.45v-27a.45.45 0 0 1 .46-.46h54a.45.45 0 0 1 .45.46v27a.45.45 0 0 1 -.45.45zm-53.51-.91h53.06v-26.09h-53.06z" fill="#231f20"/><path d="m302 203.48a.45.45 0 0 1 -.45-.46v-53.49a.46.46 0 1 1 .91 0v53.47a.45.45 0 0 1 -.46.48z" fill="#231f20"/><path d="m155.1 236a.51.51 0 0 1 -.5-.49.5.5 0 0 1 .49-.51 18.2 18.2 0 0 0 13.52-6.69.52.52 0 0 1 .36-.19.49.49 0 0 1 .38.14 16.88 16.88 0 0 0 9.41 4.92 10.64 10.64 0 0 0 9.56-3.49.5.5 0 0 1 .68-.09 13.3 13.3 0 0 0 17.86-3 .52.52 0 0 1 .81 0c4.17 5.86 13.33 7.44 19.22 3.32a.48.48 0 0 1 .66.09 8.2 8.2 0 0 0 6.08 2.76 8.08 8.08 0 0 0 6.22-2.41.52.52 0 0 1 .43-.15.51.51 0 0 1 .37.25 4.51 4.51 0 0 0 6.3 1.32.51.51 0 0 1 .7.1.5.5 0 0 1 -.11.7 5.24 5.24 0 0 1 -4.22.84 5.38 5.38 0 0 1 -3.18-1.94 9.68 9.68 0 0 1 -13-.49c-6.13 4-15.28 2.45-19.82-3.27a14.36 14.36 0 0 1 -18.48 2.93 11.74 11.74 0 0 1 -10.15 3.5 17.64 17.64 0 0 1 -9.6-4.82 19.17 19.17 0 0 1 -13.97 6.67z" fill="#d1d3d4"/><path d="m226.12 240.41a7.23 7.23 0 0 1 -5.23-2 10 10 0 0 1 -13.5-1.69 18.46 18.46 0 0 1 -12.83 2.93.5.5 0 0 1 .15-1 17.36 17.36 0 0 0 12.5-3 .52.52 0 0 1 .38-.09.56.56 0 0 1 .33.21 9 9 0 0 0 12.7 1.59.49.49 0 0 1 .37-.12.5.5 0 0 1 .34.18 6.43 6.43 0 0 0 5.56 2 20.07 20.07 0 0 0 6.13-2 .5.5 0 0 1 .66.26.5.5 0 0 1 -.25.66 20.77 20.77 0 0 1 -6.45 2 8.25 8.25 0 0 1 -.86.07z" fill="#d1d3d4"/><path d="m167.59 241.32a.5.5 0 0 1 -.49-.43.51.51 0 0 1 .42-.57 9.13 9.13 0 0 0 5.35-2.86.52.52 0 0 1 .35-.16.47.47 0 0 1 .36.14 6.25 6.25 0 0 0 3.87 1.89 4.06 4.06 0 0 0 3.68-1.64.49.49 0 0 1 .41-.22.61.61 0 0 1 .42.21 3.68 3.68 0 0 0 4.3 1.25.5.5 0 1 1 .39.92 4.74 4.74 0 0 1 -5.09-1.09 5.26 5.26 0 0 1 -4.18 1.57 7.11 7.11 0 0 1 -4.12-1.83 10.14 10.14 0 0 1 -5.59 2.81z" fill="#d1d3d4"/></svg>