<svg viewBox="0 0 400 300" xmlns="http://www.w3.org/2000/svg"><path d="m165.99 150.03h73.7v101.45h-73.7z" fill="#fff" transform="matrix(-1 0 0 -1 405.67 401.51)"/><path d="m239.69 252h-73.69a.5.5 0 0 1 -.5-.5v-101.5a.5.5 0 0 1 .5-.5h73.7a.5.5 0 0 1 .5.5v101.48a.5.5 0 0 1 -.51.52zm-73.2-1h72.7v-100.47h-72.7z" fill="#231f20"/><path d="m236.42 161.92h-67.17a.5.5 0 0 1 -.5-.5.51.51 0 0 1 .5-.5h67.17a.5.5 0 0 1 .5.5.5.5 0 0 1 -.5.5z" fill="#d1d3d4"/><path d="m236.42 173h-67.17a.51.51 0 0 1 -.5-.5.5.5 0 0 1 .5-.5h67.17a.5.5 0 0 1 .5.5.5.5 0 0 1 -.5.5z" fill="#d1d3d4"/><path d="m236.42 184.07h-67.17a.51.51 0 0 1 -.5-.5.5.5 0 0 1 .5-.5h67.17a.5.5 0 0 1 .5.5.5.5 0 0 1 -.5.5z" fill="#d1d3d4"/><path d="m236.42 195.14h-67.17a.5.5 0 0 1 0-1h67.17a.5.5 0 0 1 0 1z" fill="#d1d3d4"/><path d="m236.42 206.21h-67.17a.5.5 0 0 1 -.5-.5.51.51 0 0 1 .5-.5h67.17a.5.5 0 0 1 .5.5.5.5 0 0 1 -.5.5z" fill="#d1d3d4"/><path d="m236.42 217.29h-67.17a.51.51 0 0 1 -.5-.5.5.5 0 0 1 .5-.5h67.17a.5.5 0 0 1 .5.5.5.5 0 0 1 -.5.5z" fill="#d1d3d4"/><path d="m236.42 228.36h-67.17a.51.51 0 0 1 -.5-.5.5.5 0 0 1 .5-.5h67.17a.5.5 0 0 1 .5.5.5.5 0 0 1 -.5.5z" fill="#d1d3d4"/><path d="m236.42 239.43h-67.17a.5.5 0 0 1 0-1h67.17a.5.5 0 1 1 0 1z" fill="#d1d3d4"/><path d="m176.94 144.17h62.74v5.86h-62.74z" fill="#231f20" transform="matrix(-1 0 0 -1 416.63 294.19)"/><path d="m239.69 150.53h-62.75a.51.51 0 0 1 -.5-.5v-5.86a.5.5 0 0 1 .5-.5h62.75a.5.5 0 0 1 .5.5v5.83a.51.51 0 0 1 -.5.53zm-62.25-1h61.75v-4.86h-61.75z" fill="#231f20"/><path d="m131.29 176.2h20.53v75.27h-20.53z" fill="#fff"/><path d="m151.82 252h-20.53a.5.5 0 0 1 -.5-.5v-75.3a.51.51 0 0 1 .5-.5h20.53a.5.5 0 0 1 .5.5v75.27a.5.5 0 0 1 -.5.53zm-20-1h19.53v-74.3h-19.56z" fill="#231f20"/><path d="m91.82 166.62h40.15v84.86h-40.15z" fill="#fff"/><path d="m132 252h-40.18a.5.5 0 0 1 -.5-.5v-84.88a.5.5 0 0 1 .5-.5h40.18a.5.5 0 0 1 .5.5v84.86a.5.5 0 0 1 -.5.52zm-39.65-1h39.15v-83.88h-39.18z" fill="#231f20"/><path d="m130.19 176.65h-36.59a.5.5 0 0 1 -.5-.5.5.5 0 0 1 .5-.5h36.59a.5.5 0 0 1 .5.5.5.5 0 0 1 -.5.5z" fill="#d1d3d4"/><path d="m130.19 185.92h-36.59a.5.5 0 0 1 -.5-.5.5.5 0 0 1 .5-.5h36.59a.5.5 0 0 1 .5.5.5.5 0 0 1 -.5.5z" fill="#d1d3d4"/><path d="m130.19 195.18h-36.59a.5.5 0 0 1 -.5-.5.5.5 0 0 1 .5-.5h36.59a.5.5 0 0 1 .5.5.5.5 0 0 1 -.5.5z" fill="#d1d3d4"/><path d="m130.19 204.44h-36.59a.5.5 0 0 1 -.5-.5.5.5 0 0 1 .5-.5h36.59a.5.5 0 0 1 .5.5.5.5 0 0 1 -.5.5z" fill="#d1d3d4"/><path d="m130.19 213.7h-36.59a.5.5 0 0 1 -.5-.5.5.5 0 0 1 .5-.5h36.59a.5.5 0 0 1 .5.5.5.5 0 0 1 -.5.5z" fill="#d1d3d4"/><path d="m130.19 223h-36.59a.5.5 0 0 1 0-1h36.59a.5.5 0 0 1 0 1z" fill="#d1d3d4"/><path d="m130.19 232.22h-36.59a.5.5 0 0 1 0-1h36.59a.5.5 0 0 1 0 1z" fill="#d1d3d4"/><path d="m130.19 241.48h-36.59a.5.5 0 0 1 -.5-.5.5.5 0 0 1 .5-.5h36.59a.5.5 0 0 1 .5.5.5.5 0 0 1 -.5.5z" fill="#d1d3d4"/><path d="m91.82 161.72h34.18v4.9h-34.18z" fill="#231f20"/><path d="m126 167.12h-34.18a.5.5 0 0 1 -.5-.5v-4.9a.5.5 0 0 1 .5-.5h34.18a.5.5 0 0 1 .5.5v4.9a.5.5 0 0 1 -.5.5zm-33.68-1h33.18v-3.9h-33.18z" fill="#231f20"/><path d="m143.33 182.88h3.78v1h-3.78z" fill="#d1d3d4"/><path d="m136.7 193.82h3.78v1h-3.78z" fill="#d1d3d4"/><path d="m141.42 204.21h3.78v1h-3.78z" fill="#d1d3d4"/><path d="m188.32 228.7c-9.29-14.85-32.94-25.41-60.65-25.41s-51.35 10.56-60.67 25.41z" fill="#BE75BE"/><path d="m188.32 229.16h-121.32a.46.46 0 0 1 -.4-.23.46.46 0 0 1 0-.47c9.59-15.33 34.12-25.63 61-25.63s51.45 10.3 61 25.63a.49.49 0 0 1 0 .47.47.47 0 0 1 -.28.23zm-120.46-.91h119.62c-9.73-14.69-33.61-24.5-59.81-24.5s-50.07 9.81-59.81 24.5z" fill="#231f20"/><path d="m186.24 236.68h-114.1l-4.95-8.21h120.97z" fill="#231f20"/><path d="m186.24 237.18h-114.1a.5.5 0 0 1 -.43-.24l-4.95-8.21a.52.52 0 0 1 0-.51.49.49 0 0 1 .43-.25h121a.51.51 0 0 1 .4.19.49.49 0 0 1 .09.42l-1.91 8.21a.5.5 0 0 1 -.53.39zm-113.82-1h113.42l1.68-7.21h-119.44z" fill="#231f20"/><path d="m69.42 236.68h118.73v14.8h-118.73z" fill="#231f20"/><path d="m188.15 252h-118.73a.5.5 0 0 1 -.5-.5v-14.8a.5.5 0 0 1 .5-.5h118.73a.5.5 0 0 1 .5.5v14.8a.5.5 0 0 1 -.5.5zm-118.23-1h117.73v-13.8h-117.73z" fill="#231f20"/><path d="m179.06 230.41c-7.68-12.28-27.23-21-50.13-21s-42.46 8.73-50.14 21z" fill="#BE75BE"/><path d="m179.06 230.86h-100.27a.45.45 0 0 1 -.39-.69c7.94-12.7 28.25-21.23 50.53-21.23s42.58 8.53 50.52 21.23a.47.47 0 0 1 0 .46.46.46 0 0 1 -.39.23zm-99.43-.86h98.59c-8.08-12-27.73-20.09-49.29-20.09s-41.22 7.99-49.3 20.09z" fill="#231f20"/><path d="m165.58 230.91h-73.31a.52.52 0 0 1 -.42-.23.51.51 0 0 1 0-.48c5.83-12.74 20.74-21.3 37.11-21.3s31.27 8.56 37.1 21.3a.51.51 0 0 1 0 .48.52.52 0 0 1 -.48.23zm-72.52-1h71.73c-5.89-12-20.19-20-35.86-20s-29.93 8-35.87 20z" fill="#231f20"/><path d="m150.19 230.91h-42.53a.52.52 0 0 1 -.4-.2.5.5 0 0 1 -.08-.43c3.39-12.79 12.13-21.38 21.75-21.38s18.35 8.59 21.74 21.38a.5.5 0 0 1 -.08.43.52.52 0 0 1 -.4.2zm-41.88-1h41.23c-3.39-12-11.62-20-20.61-20s-17.23 8-20.62 20z" fill="#231f20"/><path d="m135.26 230.91h-12.67a.52.52 0 0 1 -.37-.16.53.53 0 0 1 -.13-.38c.82-10.38 3-21.47 6.84-21.47s6 11.09 6.83 21.47a.53.53 0 0 1 -.13.38.52.52 0 0 1 -.37.16zm-12.13-1h11.59c-1.1-13.14-3.73-20-5.79-20s-4.7 6.86-5.8 20z" fill="#231f20"/><path d="m177.34 237h-96.83l-1.58-6.79h99.99z" fill="#fff"/><path d="m177.34 237.5h-96.83a.5.5 0 0 1 -.49-.39l-1.58-6.78a.51.51 0 0 1 .1-.43.48.48 0 0 1 .39-.19h100a.51.51 0 0 1 .4.19.51.51 0 0 1 .09.43l-1.58 6.78a.5.5 0 0 1 -.5.39zm-96.43-1h96l1.35-5.79h-98.7z" fill="#231f20"/><path d="m78.93 237h100v14.48h-100z" fill="#BE75BE"/><path d="m178.92 251.94h-100a.46.46 0 0 1 -.46-.46v-14.48a.46.46 0 0 1 .46-.46h100a.46.46 0 0 1 .46.46v14.48a.46.46 0 0 1 -.46.46zm-99.54-.94h99.09v-13.54h-99.09z" fill="#231f20"/><path d="m178.28 234.11h-95.91a.5.5 0 0 1 -.5-.5.5.5 0 0 1 .5-.5h95.91a.5.5 0 0 1 .5.5.5.5 0 0 1 -.5.5z" fill="#d1d3d4"/><path d="m82.83 241.07h19v10.41h-19z" fill="#231f20"/><path d="m101.84 252h-19a.5.5 0 0 1 -.5-.5v-10.43a.51.51 0 0 1 .5-.5h19a.51.51 0 0 1 .5.5v10.41a.5.5 0 0 1 -.5.52zm-18.51-1h18v-9.41h-18z" fill="#231f20"/><path d="m87.69 252a.5.5 0 0 1 -.5-.5v-10.43a.5.5 0 0 1 1 0v10.41a.5.5 0 0 1 -.5.52z" fill="#fff"/><path d="m92.34 252a.5.5 0 0 1 -.5-.5v-10.43a.5.5 0 0 1 .5-.5.51.51 0 0 1 .5.5v10.41a.5.5 0 0 1 -.5.52z" fill="#fff"/><path d="m97 252a.5.5 0 0 1 -.5-.5v-10.43a.51.51 0 0 1 .5-.5.5.5 0 0 1 .5.5v10.41a.5.5 0 0 1 -.5.52z" fill="#fff"/><path d="m107.23 241.07h19v10.41h-19z" fill="#231f20"/><path d="m126.23 252h-19a.5.5 0 0 1 -.5-.5v-10.43a.5.5 0 0 1 .5-.5h19a.5.5 0 0 1 .5.5v10.41a.5.5 0 0 1 -.5.52zm-18.5-1h18v-9.41h-18z" fill="#231f20"/><path d="m112.08 252a.5.5 0 0 1 -.5-.5v-10.43a.51.51 0 0 1 .5-.5.5.5 0 0 1 .5.5v10.41a.5.5 0 0 1 -.5.52z" fill="#fff"/><path d="m116.73 252a.5.5 0 0 1 -.5-.5v-10.43a.5.5 0 0 1 1 0v10.41a.5.5 0 0 1 -.5.52z" fill="#fff"/><path d="m121.38 252a.5.5 0 0 1 -.5-.5v-10.43a.5.5 0 0 1 .5-.5.51.51 0 0 1 .5.5v10.41a.5.5 0 0 1 -.5.52z" fill="#fff"/><path d="m131.62 241.07h19v10.41h-19z" fill="#231f20"/><path d="m150.62 252h-19a.5.5 0 0 1 -.5-.5v-10.43a.5.5 0 0 1 .5-.5h19a.5.5 0 0 1 .5.5v10.41a.5.5 0 0 1 -.5.52zm-18.5-1h18v-9.41h-18z" fill="#231f20"/><path d="m136.48 252a.5.5 0 0 1 -.5-.5v-10.43a.5.5 0 0 1 .5-.5.51.51 0 0 1 .5.5v10.41a.5.5 0 0 1 -.5.52z" fill="#fff"/><path d="m141.12 252a.5.5 0 0 1 -.5-.5v-10.43a.51.51 0 0 1 .5-.5.5.5 0 0 1 .5.5v10.41a.5.5 0 0 1 -.5.52z" fill="#fff"/><path d="m145.77 252a.5.5 0 0 1 -.5-.5v-10.43a.5.5 0 0 1 .5-.5.51.51 0 0 1 .5.5v10.41a.5.5 0 0 1 -.5.52z" fill="#fff"/><path d="m156.01 241.07h19v10.41h-19z" fill="#231f20"/><path d="m175 252h-19a.5.5 0 0 1 -.5-.5v-10.43a.51.51 0 0 1 .5-.5h19a.51.51 0 0 1 .5.5v10.41a.5.5 0 0 1 -.5.52zm-18.51-1h18v-9.41h-18z" fill="#231f20"/><path d="m160.87 252a.5.5 0 0 1 -.5-.5v-10.43a.5.5 0 0 1 .5-.5.51.51 0 0 1 .5.5v10.41a.5.5 0 0 1 -.5.52z" fill="#fff"/><path d="m165.51 252a.5.5 0 0 1 -.5-.5v-10.43a.51.51 0 0 1 .5-.5.5.5 0 0 1 .5.5v10.41a.5.5 0 0 1 -.5.52z" fill="#fff"/><path d="m170.16 252a.5.5 0 0 1 -.5-.5v-10.43a.5.5 0 0 1 1 0v10.41a.5.5 0 0 1 -.5.52z" fill="#fff"/><path d="m191.5 40.66a.5.5 0 0 1 -.5-.5v-8.74a.5.5 0 0 1 .5-.5.51.51 0 0 1 .5.5v8.74a.51.51 0 0 1 -.5.5z" fill="#231f20"/><path d="m187.43 82.89h8.14v5.63h-8.14z" fill="#BE75BE"/><path d="m195.57 89h-8.14a.47.47 0 0 1 -.46-.46v-5.65a.46.46 0 0 1 .46-.45h8.14a.45.45 0 0 1 .45.45v5.63a.46.46 0 0 1 -.45.48zm-7.68-.92h7.22v-4.73h-7.22z" fill="#231f20"/><path d="m185.83 79.26h11.34v3.64h-11.34z" fill="#fff"/><path d="m197.17 83.39h-11.34a.5.5 0 0 1 -.5-.5v-3.63a.5.5 0 0 1 .5-.5h11.34a.5.5 0 0 1 .5.5v3.63a.5.5 0 0 1 -.5.5zm-10.84-1h10.34v-2.63h-10.34z" fill="#231f20"/><path d="m189.31 47.82h4.38l.88 31.44h-6.14z" fill="#BE75BE"/><path d="m194.57 79.71h-6.14a.43.43 0 0 1 -.33-.13.46.46 0 0 1 -.13-.33l.88-31.44a.46.46 0 0 1 .46-.45h4.38a.46.46 0 0 1 .46.45l.85 31.44a.51.51 0 0 1 -.13.33.46.46 0 0 1 -.3.13zm-5.67-.91h5.2l-.86-30.52h-3.49z" fill="#231f20"/><path d="m196.05 61.17c0 .6-.48 1.15-1.27 1.55h-6.57c-.79-.4-1.27-.95-1.27-1.55a1.82 1.82 0 0 1 1.12-1.47h6.94a1.84 1.84 0 0 1 1.05 1.47z" fill="#fff"/><path d="m194.78 63.22h-6.57a.42.42 0 0 1 -.22 0 2.39 2.39 0 0 1 -1.55-2 2.31 2.31 0 0 1 1.37-1.91.51.51 0 0 1 .25-.06h6.88a.51.51 0 0 1 .25.06 2.31 2.31 0 0 1 1.36 1.91 2.39 2.39 0 0 1 -1.54 2 .46.46 0 0 1 -.23 0zm-6.44-1h6.32c.57-.31.89-.69.89-1s-.27-.67-.74-1h-6.62c-.32.2-.75.54-.75 1s.33.69.9 1z" fill="#231f20"/><path d="m189.96 39.34h3.08l.18 8.48h-3.44z" fill="#231f20"/><path d="m193.22 48.32h-3.44a.51.51 0 0 1 -.36-.15.5.5 0 0 1 -.14-.36l.18-8.48a.49.49 0 0 1 .5-.49h3.04a.49.49 0 0 1 .5.49l.18 8.48a.54.54 0 0 1 -.14.36.55.55 0 0 1 -.32.15zm-2.93-1h2.42l-.16-7.48h-2.1z" fill="#231f20"/><path d="m181.06 88.29h20.87a1.71 1.71 0 0 1 1.71 1.71v2.76a0 0 0 0 1 0 0h-24.28a0 0 0 0 1 0 0v-2.76a1.71 1.71 0 0 1 1.7-1.71z" fill="#fff"/><path d="m203.64 93.26h-24.28a.5.5 0 0 1 -.5-.5v-2.76a2.21 2.21 0 0 1 2.2-2.21h20.87a2.21 2.21 0 0 1 2.21 2.21v2.76a.5.5 0 0 1 -.5.5zm-23.78-1h23.28v-2.26a1.21 1.21 0 0 0 -1.21-1.21h-20.87a1.21 1.21 0 0 0 -1.2 1.21z" fill="#231f20"/><path d="m186.52 110.34h9.96v141.14h-9.96z" fill="#231f20"/><path d="m196.48 252h-10a.5.5 0 0 1 -.5-.5v-141.16a.5.5 0 0 1 .5-.5h10a.51.51 0 0 1 .5.5v141.14a.5.5 0 0 1 -.5.52zm-9.48-1h9v-140.16h-9z" fill="#231f20"/><g fill="#fff"><path d="m195.14 114.75h-7.29a.5.5 0 0 1 -.5-.5.51.51 0 0 1 .5-.5h7.29a.5.5 0 0 1 .5.5.5.5 0 0 1 -.5.5z"/><path d="m195.18 117h-7.36a.5.5 0 0 1 -.5-.5.5.5 0 0 1 .5-.5h7.36a.5.5 0 0 1 .5.5.5.5 0 0 1 -.5.5z"/><path d="m195.21 119.36h-7.43a.51.51 0 0 1 -.5-.5.5.5 0 0 1 .5-.5h7.43a.5.5 0 0 1 .5.5.5.5 0 0 1 -.5.5z"/><path d="m195.25 121.73h-7.5a.5.5 0 0 1 0-1h7.5a.5.5 0 0 1 0 1z"/><path d="m195.29 124.15h-7.58a.5.5 0 0 1 -.5-.5.5.5 0 0 1 .5-.5h7.58a.5.5 0 0 1 .5.5.5.5 0 0 1 -.5.5z"/><path d="m195.33 126.61h-7.66a.5.5 0 0 1 -.5-.5.5.5 0 0 1 .5-.5h7.66a.51.51 0 0 1 .5.5.5.5 0 0 1 -.5.5z"/><path d="m195.37 129.13h-7.74a.5.5 0 0 1 0-1h7.74a.5.5 0 0 1 0 1z"/><path d="m195.41 131.7h-7.82a.5.5 0 1 1 0-1h7.82a.5.5 0 1 1 0 1z"/><path d="m195.45 134.32h-7.9a.5.5 0 0 1 -.5-.5.5.5 0 0 1 .5-.5h7.9a.51.51 0 0 1 .5.5.5.5 0 0 1 -.5.5z"/><path d="m195.49 137h-8a.5.5 0 0 1 0-1h8a.5.5 0 0 1 0 1z"/><path d="m195.53 139.73h-8.06a.5.5 0 0 1 -.5-.5.5.5 0 0 1 .5-.5h8.06a.5.5 0 0 1 .5.5.5.5 0 0 1 -.5.5z"/><path d="m195.57 142.53h-8.15a.51.51 0 0 1 -.5-.5.5.5 0 0 1 .5-.5h8.15a.5.5 0 0 1 .5.5.5.5 0 0 1 -.5.5z"/><path d="m195.62 145.38h-8.24a.5.5 0 0 1 -.5-.5.5.5 0 0 1 .5-.5h8.24a.51.51 0 0 1 .5.5.5.5 0 0 1 -.5.5z"/><path d="m195.66 148.3h-8.33a.51.51 0 0 1 -.5-.5.5.5 0 0 1 .5-.5h8.33a.5.5 0 0 1 .5.5.5.5 0 0 1 -.5.5z"/><path d="m195.71 151.28h-8.42a.5.5 0 0 1 0-1h8.42a.5.5 0 0 1 0 1z"/><path d="m195.76 154.33h-8.52a.5.5 0 0 1 -.5-.5.5.5 0 0 1 .5-.5h8.52a.5.5 0 0 1 .5.5.51.51 0 0 1 -.5.5z"/><path d="m195.81 157.45h-8.62a.5.5 0 0 1 -.5-.5.5.5 0 0 1 .5-.5h8.62a.5.5 0 0 1 .5.5.51.51 0 0 1 -.5.5z"/><path d="m195.85 160.63h-8.71a.5.5 0 0 1 -.5-.5.51.51 0 0 1 .5-.5h8.71a.5.5 0 0 1 .5.5.5.5 0 0 1 -.5.5z"/><path d="m195.91 163.9h-8.82a.5.5 0 0 1 -.5-.5.5.5 0 0 1 .5-.5h8.82a.5.5 0 0 1 .5.5.51.51 0 0 1 -.5.5z"/><path d="m196 167.24h-9a.5.5 0 0 1 -.5-.5.5.5 0 0 1 .5-.5h9a.5.5 0 0 1 .5.5.51.51 0 0 1 -.5.5z"/><path d="m196 170.66h-9a.5.5 0 0 1 -.5-.5.5.5 0 0 1 .5-.5h9a.5.5 0 0 1 .5.5.5.5 0 0 1 -.5.5z"/><path d="m196.06 174.16h-9.13a.51.51 0 0 1 -.5-.5.5.5 0 0 1 .5-.5h9.13a.5.5 0 0 1 .5.5.5.5 0 0 1 -.5.5z"/><path d="m196.12 177.74h-9.24a.5.5 0 0 1 -.5-.5.5.5 0 0 1 .5-.5h9.24a.5.5 0 0 1 .5.5.5.5 0 0 1 -.5.5z"/><path d="m186.82 180.42h9.36v1h-9.36z"/><path d="m186.76 184.19h9.48v1h-9.48z"/><path d="m186.7 188.05h9.59v1h-9.59z"/><path d="m186.64 192.01h9.72v1h-9.72z"/><path d="m186.58 196.07h9.84v1h-9.84z"/><path d="m186.51 200.24h9.97v1h-9.97z"/><path d="m186.45 204.53h10.11v1h-10.11z"/><path d="m186.38 208.92h10.24v1h-10.24z"/><path d="m186.31 213.44h10.38v1h-10.38z"/><path d="m186.24 218.08h10.53v1h-10.53z"/><path d="m186.16 222.86h10.67v1h-10.67z"/><path d="m186.08 227.77h10.83v1h-10.83z"/><path d="m186.01 232.82h10.98v1h-10.98z"/><path d="m185.93 238.02h11.14v1h-11.14z"/><path d="m185.84 243.38h11.31v1h-11.31z"/></g><path d="m187 251.48c3.66-47.13 3.86-141.14 3.86-141.14h-4.08c-5.77 108.74-11.31 135-13.3 141.14z" fill="#BE75BE"/><path d="m187 251.94h-13.54a.47.47 0 0 1 -.37-.19.46.46 0 0 1 -.06-.41c2.08-6.45 7.55-33.11 13.28-141a.46.46 0 0 1 .45-.44h4.08a.47.47 0 0 1 .33.14.48.48 0 0 1 .13.32c0 .94-.25 94.56-3.87 141.17a.46.46 0 0 1 -.43.41zm-12.9-.92h12.47c3.43-45.02 3.79-133.02 3.81-140.22h-3.18c-5.57 104.62-10.9 132.77-13.12 140.2z" fill="#231f20"/><path d="m209.53 251.48c-2-6.15-7.53-32.4-13.3-141.14h-4.08s.21 94 3.87 141.14z" fill="#BE75BE"/><path d="m209.53 251.94h-13.53a.45.45 0 0 1 -.45-.43c-3.63-46.61-3.87-140.23-3.87-141.17a.48.48 0 0 1 .13-.32.45.45 0 0 1 .32-.14h4.08a.46.46 0 0 1 .46.44c5.73 107.91 11.19 134.57 13.28 141a.46.46 0 0 1 -.07.41.44.44 0 0 1 -.35.21zm-13.09-.94h12.47c-2.21-7.45-7.55-35.6-13.11-140.22h-3.19c.02 7.22.39 95.22 3.83 140.22z" fill="#231f20"/><path d="m179.36 105.87h24.28a0 0 0 0 1 0 0v2.76a1.71 1.71 0 0 1 -1.71 1.71h-20.87a1.71 1.71 0 0 1 -1.71-1.71v-2.76a0 0 0 0 1 .01 0z" fill="#fff"/><path d="m201.93 110.84h-20.87a2.21 2.21 0 0 1 -2.2-2.21v-2.76a.5.5 0 0 1 .5-.5h24.28a.5.5 0 0 1 .5.5v2.76a2.21 2.21 0 0 1 -2.21 2.21zm-22.07-4.47v2.26a1.21 1.21 0 0 0 1.2 1.21h20.87a1.21 1.21 0 0 0 1.21-1.21v-2.26z" fill="#231f20"/><rect fill="#BE75BE" height="16.87" rx="3.18" width="30.83" x="176.08" y="90.53"/><path d="m203.73 107.85h-24.46a3.64 3.64 0 0 1 -3.64-3.64v-10.5a3.64 3.64 0 0 1 3.64-3.64h24.46a3.64 3.64 0 0 1 3.64 3.64v10.5a3.64 3.64 0 0 1 -3.64 3.64zm-24.46-16.85a2.72 2.72 0 0 0 -2.73 2.72v10.5a2.73 2.73 0 0 0 2.73 2.73h24.46a2.73 2.73 0 0 0 2.73-2.73v-10.51a2.73 2.73 0 0 0 -2.73-2.71z" fill="#231f20"/><path d="m207.83 95.3h-32.66a.5.5 0 0 1 0-1h32.66a.5.5 0 0 1 0 1z" fill="#231f20"/><path d="m207.83 99.46h-32.66a.5.5 0 0 1 -.5-.5.5.5 0 0 1 .5-.5h32.66a.51.51 0 0 1 .5.5.5.5 0 0 1 -.5.5z" fill="#231f20"/><path d="m207.83 103.62h-32.66a.5.5 0 0 1 -.5-.5.5.5 0 0 1 .5-.5h32.66a.51.51 0 0 1 .5.5.5.5 0 0 1 -.5.5z" fill="#231f20"/><path d="m252.27 174.34a.5.5 0 0 1 -.5-.5v-17.23a.5.5 0 0 1 .5-.5.5.5 0 0 1 .5.5v17.23a.5.5 0 0 1 -.5.5z" fill="#231f20"/><path d="m247.14 176.21h20.53v75.27h-20.53z" fill="#fff"/><path d="m267.67 252h-20.53a.5.5 0 0 1 -.5-.5v-75.29a.5.5 0 0 1 .5-.5h20.53a.5.5 0 0 1 .5.5v75.27a.5.5 0 0 1 -.5.52zm-20-1h19.53v-74.29h-19.56z" fill="#231f20"/><path d="m247.14 172.31h10.26v3.9h-10.26z" fill="#231f20"/><path d="m257.4 176.71h-10.26a.5.5 0 0 1 -.5-.5v-3.9a.5.5 0 0 1 .5-.5h10.26a.5.5 0 0 1 .5.5v3.9a.5.5 0 0 1 -.5.5zm-9.76-1h9.26v-2.9h-9.26z" fill="#231f20"/><path d="m266.15 105.12h61.58v146.36h-61.58z" fill="#fff"/><path d="m327.73 105.12v146.36h-61.58v-146.36zm0-1h-61.58a1 1 0 0 0 -1 1v146.36a1 1 0 0 0 1 1h61.58a1 1 0 0 0 1-1v-146.36a1 1 0 0 0 -1-1z" fill="#231f20"/><path d="m266.15 116.03h61.58v1h-61.58z" fill="#d1d3d4"/><path d="m266.15 127.81h61.58v1h-61.58z" fill="#d1d3d4"/><path d="m266.15 139.6h61.58v1h-61.58z" fill="#d1d3d4"/><path d="m266.15 151.38h61.58v1h-61.58z" fill="#d1d3d4"/><path d="m266.15 163.17h61.58v1h-61.58z" fill="#d1d3d4"/><path d="m266.15 174.95h61.58v1h-61.58z" fill="#d1d3d4"/><path d="m266.15 186.74h61.58v1h-61.58z" fill="#d1d3d4"/><path d="m266.15 198.52h61.58v1h-61.58z" fill="#d1d3d4"/><path d="m266.15 210.3h61.58v1h-61.58z" fill="#d1d3d4"/><path d="m266.15 222.09h61.58v1h-61.58z" fill="#d1d3d4"/><path d="m266.15 233.87h61.58v1h-61.58z" fill="#d1d3d4"/><path d="m282.4 94.1h29.08v157.38h-29.08z" fill="#fff"/><path d="m311.48 252h-29.08a.5.5 0 0 1 -.5-.5v-157.4a.5.5 0 0 1 .5-.5h29.08a.5.5 0 0 1 .5.5v157.38a.5.5 0 0 1 -.5.52zm-28.58-1h28.1v-156.4h-28.1z" fill="#231f20"/><path d="m311.48 111h-29.08a.5.5 0 0 1 -.5-.5.5.5 0 0 1 .5-.5h29.08a.5.5 0 0 1 .5.5.5.5 0 0 1 -.5.5z" fill="#231f20"/><path d="m311.48 122.74h-29.08a.5.5 0 0 1 -.5-.5.5.5 0 0 1 .5-.5h29.08a.5.5 0 0 1 .5.5.5.5 0 0 1 -.5.5z" fill="#231f20"/><path d="m311.48 134.52h-29.08a.5.5 0 0 1 -.5-.5.5.5 0 0 1 .5-.5h29.08a.5.5 0 0 1 .5.5.5.5 0 0 1 -.5.5z" fill="#231f20"/><path d="m311.48 146.31h-29.08a.5.5 0 0 1 -.5-.5.5.5 0 0 1 .5-.5h29.08a.5.5 0 0 1 .5.5.5.5 0 0 1 -.5.5z" fill="#231f20"/><path d="m311.48 158.09h-29.08a.5.5 0 0 1 0-1h29.08a.5.5 0 0 1 0 1z" fill="#231f20"/><path d="m311.48 169.88h-29.08a.5.5 0 0 1 -.5-.5.5.5 0 0 1 .5-.5h29.08a.5.5 0 0 1 .5.5.5.5 0 0 1 -.5.5z" fill="#231f20"/><path d="m311.48 181.66h-29.08a.5.5 0 0 1 0-1h29.08a.5.5 0 0 1 0 1z" fill="#231f20"/><path d="m311.48 193.44h-29.08a.5.5 0 0 1 -.5-.5.5.5 0 0 1 .5-.5h29.08a.5.5 0 0 1 .5.5.5.5 0 0 1 -.5.5z" fill="#231f20"/><path d="m311.48 205.23h-29.08a.5.5 0 0 1 -.5-.5.5.5 0 0 1 .5-.5h29.08a.5.5 0 0 1 .5.5.5.5 0 0 1 -.5.5z" fill="#231f20"/><path d="m311.48 217h-29.08a.5.5 0 0 1 -.5-.5.5.5 0 0 1 .5-.5h29.08a.5.5 0 0 1 .5.5.5.5 0 0 1 -.5.5z" fill="#231f20"/><path d="m311.48 228.8h-29.08a.5.5 0 0 1 -.5-.5.5.5 0 0 1 .5-.5h29.08a.5.5 0 0 1 .5.5.5.5 0 0 1 -.5.5z" fill="#231f20"/><path d="m286.67 89.43h20.53v4.72h-20.53z" fill="#231f20"/><path d="m307.2 94.66h-20.53a.51.51 0 0 1 -.5-.5v-4.73a.51.51 0 0 1 .5-.5h20.53a.5.5 0 0 1 .5.5v4.73a.5.5 0 0 1 -.5.5zm-20-1h19.5v-3.73h-19.53z" fill="#231f20"/><path d="m252.44 187.2h3.78v1h-3.78z" fill="#d1d3d4"/><path d="m257.64 198.54h3.78v1h-3.78z" fill="#d1d3d4"/><path d="m251.97 209.88h3.78v1h-3.78z" fill="#d1d3d4"/><path d="m253.86 226.89h3.78v1h-3.78z" fill="#d1d3d4"/><path d="m218.9 240.46h113.07v11.02h-113.07z" fill="#BE75BE"/><path d="m332 251.94h-113.1a.47.47 0 0 1 -.46-.46v-11a.46.46 0 0 1 .46-.45h113.1a.45.45 0 0 1 .46.45v11a.46.46 0 0 1 -.46.46zm-112.64-.94h112.16v-10.1h-112.16z" fill="#231f20"/><path d="m249.27 233.85s6.64-7.16 26.17-7.16 26.16 7.16 26.16 7.16z" fill="#BE75BE"/><path d="m301.6 234.31h-52.33a.48.48 0 0 1 -.42-.27.46.46 0 0 1 .09-.5c.27-.3 7-7.3 26.5-7.3s26.22 7 26.5 7.3a.48.48 0 0 1 .08.5.46.46 0 0 1 -.42.27zm-51.1-.91h49.87c-2.38-1.82-9.73-6.25-24.93-6.25s-22.56 4.43-24.94 6.25z" fill="#231f20"/><path d="m296.29 241h-41.71a.48.48 0 0 1 -.4-.2l-4.82-6.61a.51.51 0 0 1 .41-.8h51.33a.51.51 0 0 1 .41.8l-4.81 6.61a.51.51 0 0 1 -.41.2zm-41.45-1h41.16l4.08-5.61h-49.33z" fill="#231f20"/><path d="m263.88 240.78-5-6.11-4.45 6.09-.81-.59 4.83-6.61a.5.5 0 0 1 .39-.21.56.56 0 0 1 .4.19l5.44 6.61z" fill="#231f20"/><path d="m274.75 240.78-5-6.11-4.45 6.09-.81-.59 4.83-6.61a.5.5 0 0 1 .39-.21.55.55 0 0 1 .4.19l5.44 6.61z" fill="#231f20"/><path d="m285.62 240.78-5-6.11-4.45 6.09-.81-.59 4.83-6.61a.5.5 0 0 1 .39-.21.53.53 0 0 1 .4.19l5.44 6.61z" fill="#231f20"/><path d="m296.49 240.78-5-6.11-4.49 6.09-.8-.59 4.82-6.61a.51.51 0 0 1 .39-.21.55.55 0 0 1 .4.19l5.44 6.61z" fill="#231f20"/><path d="m231.34 251.5h-1a101.36 101.36 0 0 0 .08-10.76.45.45 0 0 0 .41.26v-1l.39.17c.17.13.55.53.12 11.33z" fill="#231f20"/><path d="m246.18 251.5h-1a98.54 98.54 0 0 0 .08-10.76.46.46 0 0 0 .42.26v-1l.38.17c.16.13.55.53.12 11.33z" fill="#231f20"/><path d="m261 251.5h-1a98.54 98.54 0 0 0 .08-10.76.46.46 0 0 0 .42.26v-1l.38.17c.18.13.56.53.12 11.33z" fill="#231f20"/><path d="m275.84 251.5h-1a98.54 98.54 0 0 0 .08-10.76.46.46 0 0 0 .42.26v-1l.38.17c.17.13.55.53.12 11.33z" fill="#231f20"/><path d="m290.67 251.5h-1a102.49 102.49 0 0 0 .09-10.76.43.43 0 0 0 .41.26v-1l.39.17c.16.13.54.53.11 11.33z" fill="#231f20"/><path d="m305.5 251.5h-1a99.61 99.61 0 0 0 .09-10.76.43.43 0 0 0 .41.26v-1l.39.17c.16.13.54.53.11 11.33z" fill="#231f20"/><path d="m320.33 251.5h-1a99.61 99.61 0 0 0 .09-10.76.45.45 0 0 0 .41.26v-1l.39.17c.16.13.54.53.11 11.33z" fill="#231f20"/><path d="m218.9 243.27h113.07v1h-113.07z" fill="#231f20"/><path d="m341 252.42h-282a.5.5 0 0 1 -.5-.5.5.5 0 0 1 .5-.5h282a.5.5 0 0 1 .5.5.5.5 0 0 1 -.5.5z" fill="#231f20"/></svg>